<svg width="1200" height="800" viewBox="0 0 1200 800" xmlns="http://www.w3.org/2000/svg" preserveAspectRatio="xMidYMid meet">
  <defs>
    <linearGradient id="g1" x1="0" x2="1">
      <stop offset="0%" stop-color="#0f766e" />
      <stop offset="100%" stop-color="#10b981" />
    </linearGradient>
    <filter id="f1" x="-20%" y="-20%" width="140%" height="140%">
      <feDropShadow dx="0" dy="8" stdDeviation="20" flood-color="#065f46" flood-opacity="0.18" />
    </filter>
  </defs>
  <rect width="100%" height="100%" fill="url(#g1)"/>
  <g transform="translate(80,80)">
    <rect x="0" y="0" width="660" height="640" rx="28" fill="#ffffff" opacity="0.06" />
    <g transform="translate(20,20)" filter="url(#f1)">
      <rect x="0" y="0" width="620" height="600" rx="20" fill="#fff" />
      <rect x="24" y="24" width="220" height="160" rx="12" fill="#f8faf9" />
      <rect x="260" y="24" width="320" height="160" rx="12" fill="#f1f5f9" />
      <rect x="24" y="204" width="556" height="120" rx="12" fill="#fff8f0" />
      <circle cx="80" cy="420" r="72" fill="#fef3c7" />
      <circle cx="200" cy="420" r="72" fill="#fde68a" />
      <rect x="300" y="360" width="280" height="120" rx="12" fill="#e6fffa" />
    </g>
  </g>
  <g transform="translate(780,140)">
    <text x="0" y="0" font-size="42" font-family="Inter, Arial" font-weight="700" fill="#fff">EcoMarket — Premium Grocery</text>
    <text x="0" y="60" font-size="20" font-family="Inter, Arial" fill="#ecfeff">Fresh, organic & delivered with care</text>
    <rect x="0" y="110" width="340" height="56" rx="28" fill="#fff" />
    <text x="26" y="150" font-size="18" font-family="Inter, Arial" fill="#059669">Shop Now</text>
    <g transform="translate(0,200)">
      <rect x="0" y="0" width="340" height="160" rx="16" fill="#ffffff" opacity="0.08" />
      <text x="20" y="36" font-size="16" font-family="Inter, Arial" fill="#fff">Seasonal picks</text>
      <text x="20" y="68" font-size="14" font-family="Inter, Arial" fill="#e6fffa">Direct from local farms</text>
    </g>
  </g>
</svg>
