<svg xmlns="http://www.w3.org/2000/svg" viewBox="0 0 800 500">
  <defs>
    <linearGradient id="nebulaGrad" x1="0%" y1="0%" x2="100%" y2="100%">
      <stop offset="0%" stop-color="#8B5CF6"/>
      <stop offset="100%" stop-color="#06B6D4"/>
    </linearGradient>
    <linearGradient id="nebulaGradV" x1="0%" y1="0%" x2="0%" y2="100%">
      <stop offset="0%" stop-color="#8B5CF6"/>
      <stop offset="100%" stop-color="#D946EF"/>
    </linearGradient>
  </defs>
  
  <!-- Background -->
  <rect width="800" height="500" fill="#0a0a0f"/>
  
  <!-- Title -->
  <text x="400" y="30" text-anchor="middle" font-family="Arial" font-size="14" font-weight="bold" fill="#8B5CF6" letter-spacing="4">SOCIAL MEDIA TEMPLATES</text>
  
  <!-- Instagram Post -->
  <rect x="40" y="50" width="200" height="200" rx="4" fill="#12121a"/>
  <rect x="40" y="50" width="200" height="200" rx="4" fill="url(#nebulaGrad)" opacity="0.15"/>
  
  <!-- Big logo -->
  <circle cx="140" cy="120" r="35" fill="url(#nebulaGrad)"/>
  <path d="M 120 120 L 140 95 L 160 120 L 140 108 Z" fill="#fff"/>
  
  <text x="140" y="175" text-anchor="middle" font-family="Arial" font-size="18" font-weight="bold" fill="#fff">NEBULA AI</text>
  <text x="140" y="195" text-anchor="middle" font-family="Arial" font-size="9" fill="#888">ETHICAL INTELLIGENCE</text>
  <text x="140" y="235" text-anchor="middle" font-family="Arial" font-size="9" fill="#666">Instagram Post • 1080×1080</text>
  
  <!-- Instagram Story -->
  <rect x="260" y="50" width="112" height="200" rx="8" fill="#12121a"/>
  <rect x="260" y="50" width="112" height="200" rx="8" fill="url(#nebulaGradV)" opacity="0.2"/>
  
  <!-- Story content -->
  <circle cx="316" cy="90" r="20" fill="url(#nebulaGrad)"/>
  <path d="M 306 90 L 316 75 L 326 90 L 316 82 Z" fill="#fff"/>
  
  <text x="316" y="125" text-anchor="middle" font-family="Arial" font-size="11" font-weight="bold" fill="#fff">NEW</text>
  <text x="316" y="140" text-anchor="middle" font-family="Arial" font-size="11" font-weight="bold" fill="#fff">FEATURE</text>
  
  <rect x="275" y="155" width="82" height="25" rx="12" fill="url(#nebulaGrad)"/>
  <text x="316" y="171" text-anchor="middle" font-family="Arial" font-size="9" font-weight="bold" fill="#fff">Learn More</text>
  
  <!-- Swipe up icon -->
  <path d="M 316 200 L 310 210 L 316 207 L 322 210 Z" fill="#fff" opacity="0.6"/>
  <text x="316" y="220" text-anchor="middle" font-family="Arial" font-size="7" fill="#888">Swipe Up</text>
  
  <text x="316" y="265" text-anchor="middle" font-family="Arial" font-size="9" fill="#666">Story • 1080×1920</text>
  
  <!-- Twitter/X Post -->
  <rect x="395" y="50" width="360" height="120" rx="8" fill="#12121a"/>
  
  <!-- Profile pic -->
  <circle cx="430" cy="85" r="20" fill="url(#nebulaGrad)"/>
  <path d="M 422 85 L 430 72 L 438 85 L 430 78 Z" fill="#fff"/>
  
  <text x="460" y="75" font-family="Arial" font-size="12" font-weight="bold" fill="#fff">Nebula AI</text>
  <text x="538" y="75" font-family="Arial" font-size="10" fill="#666">@nebula_ai</text>
  <text x="610" y="75" font-family="Arial" font-size="10" fill="#555">• 2h</text>
  
  <text x="460" y="95" font-family="Arial" font-size="11" fill="#ccc">Introducing our new AI model that puts ethics first. 🚀</text>
  <text x="460" y="112" font-family="Arial" font-size="11" fill="#ccc">Built with transparency and responsibility at its core.</text>
  <text x="460" y="129" font-family="Arial" font-size="11" fill="#8B5CF6">#AI #Ethics #Innovation</text>
  
  <!-- Tweet actions -->
  <text x="420" y="155" font-family="Arial" font-size="10" fill="#555">💬 234</text>
  <text x="480" y="155" font-family="Arial" font-size="10" fill="#555">🔄 1.2K</text>
  <text x="540" y="155" font-family="Arial" font-size="10" fill="#555">❤️ 5.8K</text>
  <text x="600" y="155" font-family="Arial" font-size="10" fill="#555">📊 45K</text>
  
  <text x="575" y="180" text-anchor="middle" font-family="Arial" font-size="9" fill="#666">X/Twitter Post</text>
  
  <!-- LinkedIn Banner -->
  <rect x="40" y="280" width="480" height="110" rx="4" fill="#12121a"/>
  <rect x="40" y="280" width="480" height="80" rx="4" fill="url(#nebulaGrad)" opacity="0.3"/>
  
  <!-- Abstract pattern on banner -->
  <circle cx="80" cy="310" r="30" fill="#8B5CF6" opacity="0.2"/>
  <circle cx="150" cy="340" r="45" fill="#06B6D4" opacity="0.15"/>
  <circle cx="440" cy="300" r="35" fill="#D946EF" opacity="0.15"/>
  <circle cx="380" cy="350" r="25" fill="#8B5CF6" opacity="0.1"/>
  
  <!-- Logo on banner -->
  <circle cx="280" cy="320" r="25" fill="url(#nebulaGrad)"/>
  <path d="M 265 320 L 280 300 L 295 320 L 280 310 Z" fill="#fff"/>
  
  <!-- Profile photo overlap -->
  <circle cx="90" cy="360" r="30" fill="#1a1a24" stroke="#0a0a0f" stroke-width="3"/>
  <circle cx="90" cy="360" r="25" fill="url(#nebulaGrad)"/>
  <path d="M 78 360 L 90 343 L 102 360 L 90 352 Z" fill="#fff"/>
  
  <text x="135" y="370" font-family="Arial" font-size="12" font-weight="bold" fill="#fff">Nebula AI</text>
  <text x="135" y="385" font-family="Arial" font-size="9" fill="#888">Ethical AI Solutions | 10K followers</text>
  
  <text x="280" y="420" text-anchor="middle" font-family="Arial" font-size="9" fill="#666">LinkedIn Banner • 1584×396</text>
  
  <!-- YouTube Thumbnail -->
  <rect x="560" y="280" width="200" height="112" rx="4" fill="#12121a"/>
  <rect x="560" y="280" width="200" height="112" rx="4" fill="url(#nebulaGrad)" opacity="0.2"/>
  
  <!-- Thumbnail content -->
  <circle cx="660" cy="320" r="25" fill="url(#nebulaGrad)"/>
  <path d="M 648 320 L 660 300 L 672 320 L 660 310 Z" fill="#fff"/>
  
  <text x="660" y="360" text-anchor="middle" font-family="Arial" font-size="14" font-weight="bold" fill="#fff">AI That Cares</text>
  <text x="660" y="378" text-anchor="middle" font-family="Arial" font-size="9" fill="#06B6D4">FULL DOCUMENTARY</text>
  
  <!-- Play button -->
  <circle cx="660" cy="320" r="15" fill="rgba(0,0,0,0.5)"/>
  <path d="M 654 312 L 654 328 L 670 320 Z" fill="#fff"/>
  
  <!-- Duration badge -->
  <rect x="725" y="370" width="28" height="14" rx="2" fill="rgba(0,0,0,0.8)"/>
  <text x="739" y="380" text-anchor="middle" font-family="Arial" font-size="8" fill="#fff">15:42</text>
  
  <text x="660" y="420" text-anchor="middle" font-family="Arial" font-size="9" fill="#666">YouTube Thumbnail • 1280×720</text>
  
  <!-- Email Signature -->
  <rect x="40" y="440" width="300" height="50" rx="4" fill="#ffffff"/>
  <rect x="55" y="450" width="30" height="30" rx="4" fill="url(#nebulaGrad)"/>
  <path d="M 62 465 L 70 455 L 78 465 L 70 460 Z" fill="#fff"/>
  
  <text x="95" y="462" font-family="Arial" font-size="10" font-weight="bold" fill="#0a0a0f">Alex Chen</text>
  <text x="95" y="475" font-family="Arial" font-size="8" fill="#555">Product Designer | Nebula AI</text>
  <text x="200" y="462" font-family="Arial" font-size="8" fill="#8B5CF6">alex@nebula-ai.com</text>
  <text x="200" y="475" font-family="Arial" font-size="8" fill="#888">+1 (555) 123-4567</text>
  
  <text x="190" y="495" text-anchor="middle" font-family="Arial" font-size="9" fill="#666">Email Signature</text>
  
  <!-- Favicon -->
  <rect x="380" y="440" width="100" height="50" rx="4" fill="#1a1a24"/>
  <rect x="410" y="450" width="24" height="24" rx="4" fill="url(#nebulaGrad)"/>
  <path d="M 416 462 L 422 454 L 428 462 L 422 458 Z" fill="#fff"/>
  <rect x="440" y="455" width="12" height="12" rx="2" fill="url(#nebulaGrad)"/>
  <path d="M 443 461 L 446 457 L 449 461 L 446 459 Z" fill="#fff"/>
  
  <text x="430" y="495" text-anchor="middle" font-family="Arial" font-size="9" fill="#666">Favicon Sizes</text>
  
  <!-- App Icon -->
  <rect x="520" y="440" width="100" height="50" rx="4" fill="#1a1a24"/>
  <rect x="550" y="447" width="36" height="36" rx="8" fill="url(#nebulaGrad)"/>
  <path d="M 559 465 L 568 450 L 577 465 L 568 458 Z" fill="#fff"/>
  
  <text x="570" y="495" text-anchor="middle" font-family="Arial" font-size="9" fill="#666">App Icon</text>
  
  <!-- Footer -->
  <text x="700" y="485" font-family="Arial" font-size="9" fill="#444">Nebula AI • Brand Guidelines v1.0</text>
</svg>