<svg xmlns="http://www.w3.org/2000/svg" width="1200" height="600" viewBox="0 0 1200 600" preserveAspectRatio="xMidYMid slice">
  <defs>
    <linearGradient id="bg" x1="0" y1="0" x2="0" y2="1"><stop offset="0%" stop-color="#0f172a"/><stop offset="100%" stop-color="#1e293b"/></linearGradient>
    <linearGradient id="accent" x1="0" y1="0" x2="1" y2="1"><stop offset="0%" stop-color="#06b6d4"/><stop offset="100%" stop-color="#6366f1"/></linearGradient>
    <linearGradient id="card" x1="0" y1="0" x2="0" y2="1"><stop offset="0%" stop-color="#1e293b"/><stop offset="100%" stop-color="#0f172a"/></linearGradient>
  </defs>

  <!-- Background -->
  <rect width="1200" height="600" fill="url(#bg)"/>

  <!-- Header bar -->
  <rect width="1200" height="44" fill="#0f172a" fill-opacity=".8"/>
  <text x="600" y="28" font-family="system-ui,sans-serif" font-size="13" fill="#06b6d4" text-anchor="middle" font-weight="600">✓ APRÈS — Un design system unifié pour 15 services, WCAG AAA</text>

  <!-- Section: Unified color palette -->
  <g transform="translate(30,60)">
    <text x="0" y="14" font-family="system-ui,sans-serif" font-size="10" fill="#94a3b8" font-weight="600" letter-spacing="2">PALETTE UNIFIÉE</text>
    <!-- Primary colors -->
    <rect x="0" y="24" width="40" height="28" rx="6" fill="#06b6d4"/>
    <rect x="48" y="24" width="40" height="28" rx="6" fill="#6366f1"/>
    <rect x="96" y="24" width="40" height="28" rx="6" fill="#0f172a"/>
    <rect x="144" y="24" width="40" height="28" rx="6" fill="#1e293b"/>
    <rect x="192" y="24" width="40" height="28" rx="6" fill="#f8fafc"/>
    <rect x="240" y="24" width="40" height="28" rx="6" fill="#10b981"/>
    <text x="0" y="68" font-family="monospace" font-size="7" fill="#64748b">Cyan 500</text>
    <text x="48" y="68" font-family="monospace" font-size="7" fill="#64748b">Indigo 500</text>
    <text x="96" y="68" font-family="monospace" font-size="7" fill="#64748b">Slate 900</text>
    <text x="144" y="68" font-family="monospace" font-size="7" fill="#64748b">Slate 800</text>
    <text x="192" y="68" font-family="monospace" font-size="7" fill="#64748b">Slate 50</text>
    <text x="240" y="68" font-family="monospace" font-size="7" fill="#64748b">Emerald</text>
  </g>

  <!-- Section: Typography -->
  <g transform="translate(330,60)">
    <text x="0" y="14" font-family="system-ui,sans-serif" font-size="10" fill="#94a3b8" font-weight="600" letter-spacing="2">TYPOGRAPHIE</text>
    <text x="0" y="40" font-family="system-ui,sans-serif" font-size="20" fill="#f8fafc" font-weight="700">Inter Bold — Titres</text>
    <text x="0" y="58" font-family="system-ui,sans-serif" font-size="13" fill="#cbd5e1" font-weight="400">Inter Regular — Corps de texte</text>
    <text x="0" y="72" font-family="monospace" font-size="10" fill="#06b6d4">JetBrains Mono — Données</text>
  </g>

  <!-- Section: Spacing -->
  <g transform="translate(640,60)">
    <text x="0" y="14" font-family="system-ui,sans-serif" font-size="10" fill="#94a3b8" font-weight="600" letter-spacing="2">GRILLE 8px</text>
    <g transform="translate(0,24)">
      <rect x="0" y="0" width="8" height="8" fill="#06b6d4" opacity=".3"/>
      <rect x="12" y="0" width="16" height="16" fill="#06b6d4" opacity=".3"/>
      <rect x="32" y="0" width="24" height="24" fill="#06b6d4" opacity=".3"/>
      <rect x="60" y="0" width="32" height="32" fill="#06b6d4" opacity=".3"/>
      <rect x="96" y="0" width="48" height="48" fill="#06b6d4" opacity=".3"/>
      <text x="0" y="52" font-family="monospace" font-size="7" fill="#64748b">8   16   24   32   48</text>
    </g>
  </g>

  <!-- WCAG Badge -->
  <g transform="translate(810,60)">
    <text x="0" y="14" font-family="system-ui,sans-serif" font-size="10" fill="#94a3b8" font-weight="600" letter-spacing="2">ACCESSIBILITÉ</text>
    <rect x="0" y="24" width="100" height="48" rx="8" fill="#10b981" fill-opacity=".15" stroke="#10b981" stroke-width="1"/>
    <text x="50" y="46" font-family="system-ui,sans-serif" font-size="14" fill="#10b981" text-anchor="middle" font-weight="700">WCAG AAA</text>
    <text x="50" y="62" font-family="system-ui,sans-serif" font-size="8" fill="#10b981" text-anchor="middle">Contrast 7:1+</text>
    <rect x="110" y="24" width="100" height="48" rx="8" fill="#06b6d4" fill-opacity=".1" stroke="#06b6d4" stroke-width="1"/>
    <text x="160" y="46" font-family="system-ui,sans-serif" font-size="14" fill="#06b6d4" text-anchor="middle" font-weight="700">120+</text>
    <text x="160" y="62" font-family="system-ui,sans-serif" font-size="8" fill="#06b6d4" text-anchor="middle">Composants</text>
    <rect x="220" y="24" width="100" height="48" rx="8" fill="#6366f1" fill-opacity=".1" stroke="#6366f1" stroke-width="1"/>
    <text x="270" y="46" font-family="system-ui,sans-serif" font-size="14" fill="#6366f1" text-anchor="middle" font-weight="700">15→1</text>
    <text x="270" y="62" font-family="system-ui,sans-serif" font-size="8" fill="#6366f1" text-anchor="middle">Identité unique</text>
  </g>

  <!-- Unified cards row — all services with consistent style -->
  <g transform="translate(30,155)">
    <text x="0" y="0" font-family="system-ui,sans-serif" font-size="10" fill="#94a3b8" font-weight="600" letter-spacing="2">SERVICES UNIFIÉS</text>
  </g>

  <!-- Card 1: Transport -->
  <g transform="translate(30,172)">
    <rect width="175" height="130" rx="12" fill="url(#card)" stroke="#334155" stroke-width="1"/>
    <rect x="12" y="12" width="32" height="32" rx="8" fill="#06b6d4" fill-opacity=".15"/>
    <text x="28" y="34" font-family="system-ui,sans-serif" font-size="16" text-anchor="middle">🚌</text>
    <text x="52" y="28" font-family="system-ui,sans-serif" font-size="12" fill="#f1f5f9" font-weight="600">Transport</text>
    <text x="52" y="40" font-family="system-ui,sans-serif" font-size="8" fill="#64748b">Réseau & mobilités</text>
    <rect x="12" y="56" width="151" height="4" rx="2" fill="#1e293b"/>
    <rect x="12" y="56" width="110" height="4" rx="2" fill="#06b6d4" opacity=".6"/>
    <rect x="12" y="66" width="151" height="4" rx="2" fill="#1e293b"/>
    <rect x="12" y="66" width="80" height="4" rx="2" fill="#06b6d4" opacity=".4"/>
    <rect x="12" y="96" width="80" height="24" rx="8" fill="#06b6d4" fill-opacity=".15"/>
    <text x="52" y="112" font-family="system-ui,sans-serif" font-size="9" fill="#06b6d4" text-anchor="middle" font-weight="500">Horaires →</text>
  </g>

  <!-- Card 2: Santé -->
  <g transform="translate(218,172)">
    <rect width="175" height="130" rx="12" fill="url(#card)" stroke="#334155" stroke-width="1"/>
    <rect x="12" y="12" width="32" height="32" rx="8" fill="#06b6d4" fill-opacity=".15"/>
    <text x="28" y="34" font-family="system-ui,sans-serif" font-size="16" text-anchor="middle">🏥</text>
    <text x="52" y="28" font-family="system-ui,sans-serif" font-size="12" fill="#f1f5f9" font-weight="600">Santé</text>
    <text x="52" y="40" font-family="system-ui,sans-serif" font-size="8" fill="#64748b">Centres & prévention</text>
    <rect x="12" y="56" width="151" height="4" rx="2" fill="#1e293b"/>
    <rect x="12" y="56" width="130" height="4" rx="2" fill="#06b6d4" opacity=".6"/>
    <rect x="12" y="66" width="151" height="4" rx="2" fill="#1e293b"/>
    <rect x="12" y="66" width="95" height="4" rx="2" fill="#06b6d4" opacity=".4"/>
    <rect x="12" y="96" width="80" height="24" rx="8" fill="#06b6d4" fill-opacity=".15"/>
    <text x="52" y="112" font-family="system-ui,sans-serif" font-size="9" fill="#06b6d4" text-anchor="middle" font-weight="500">RDV →</text>
  </g>

  <!-- Card 3: Éducation -->
  <g transform="translate(406,172)">
    <rect width="175" height="130" rx="12" fill="url(#card)" stroke="#334155" stroke-width="1"/>
    <rect x="12" y="12" width="32" height="32" rx="8" fill="#06b6d4" fill-opacity=".15"/>
    <text x="28" y="34" font-family="system-ui,sans-serif" font-size="16" text-anchor="middle">📚</text>
    <text x="52" y="28" font-family="system-ui,sans-serif" font-size="12" fill="#f1f5f9" font-weight="600">Éducation</text>
    <text x="52" y="40" font-family="system-ui,sans-serif" font-size="8" fill="#64748b">Écoles & médiathèques</text>
    <rect x="12" y="56" width="151" height="4" rx="2" fill="#1e293b"/>
    <rect x="12" y="56" width="100" height="4" rx="2" fill="#06b6d4" opacity=".6"/>
    <rect x="12" y="66" width="151" height="4" rx="2" fill="#1e293b"/>
    <rect x="12" y="66" width="120" height="4" rx="2" fill="#06b6d4" opacity=".4"/>
    <rect x="12" y="96" width="80" height="24" rx="8" fill="#06b6d4" fill-opacity=".15"/>
    <text x="52" y="112" font-family="system-ui,sans-serif" font-size="9" fill="#06b6d4" text-anchor="middle" font-weight="500">Catalogue →</text>
  </g>

  <!-- Card 4: Sécurité -->
  <g transform="translate(594,172)">
    <rect width="175" height="130" rx="12" fill="url(#card)" stroke="#334155" stroke-width="1"/>
    <rect x="12" y="12" width="32" height="32" rx="8" fill="#06b6d4" fill-opacity=".15"/>
    <text x="28" y="34" font-family="system-ui,sans-serif" font-size="16" text-anchor="middle">🛡</text>
    <text x="52" y="28" font-family="system-ui,sans-serif" font-size="12" fill="#f1f5f9" font-weight="600">Sécurité</text>
    <text x="52" y="40" font-family="system-ui,sans-serif" font-size="8" fill="#64748b">Surveillance & alertes</text>
    <rect x="12" y="56" width="151" height="4" rx="2" fill="#1e293b"/>
    <rect x="12" y="56" width="90" height="4" rx="2" fill="#06b6d4" opacity=".6"/>
    <rect x="12" y="66" width="151" height="4" rx="2" fill="#1e293b"/>
    <rect x="12" y="66" width="140" height="4" rx="2" fill="#06b6d4" opacity=".4"/>
    <rect x="12" y="96" width="80" height="24" rx="8" fill="#06b6d4" fill-opacity=".15"/>
    <text x="52" y="112" font-family="system-ui,sans-serif" font-size="9" fill="#06b6d4" text-anchor="middle" font-weight="500">Alertes →</text>
  </g>

  <!-- Card 5: Environnement -->
  <g transform="translate(782,172)">
    <rect width="175" height="130" rx="12" fill="url(#card)" stroke="#334155" stroke-width="1"/>
    <rect x="12" y="12" width="32" height="32" rx="8" fill="#10b981" fill-opacity=".15"/>
    <text x="28" y="34" font-family="system-ui,sans-serif" font-size="16" text-anchor="middle">🌿</text>
    <text x="52" y="28" font-family="system-ui,sans-serif" font-size="12" fill="#f1f5f9" font-weight="600">Environnement</text>
    <text x="52" y="40" font-family="system-ui,sans-serif" font-size="8" fill="#64748b">Parcs & énergie</text>
    <rect x="12" y="56" width="151" height="4" rx="2" fill="#1e293b"/>
    <rect x="12" y="56" width="140" height="4" rx="2" fill="#10b981" opacity=".6"/>
    <rect x="12" y="66" width="151" height="4" rx="2" fill="#1e293b"/>
    <rect x="12" y="66" width="105" height="4" rx="2" fill="#10b981" opacity=".4"/>
    <rect x="12" y="96" width="80" height="24" rx="8" fill="#10b981" fill-opacity=".15"/>
    <text x="52" y="112" font-family="system-ui,sans-serif" font-size="9" fill="#10b981" text-anchor="middle" font-weight="500">Explorer →</text>
  </g>

  <!-- Card 6: État Civil -->
  <g transform="translate(970,172)">
    <rect width="175" height="130" rx="12" fill="url(#card)" stroke="#334155" stroke-width="1"/>
    <rect x="12" y="12" width="32" height="32" rx="8" fill="#6366f1" fill-opacity=".15"/>
    <text x="28" y="34" font-family="system-ui,sans-serif" font-size="16" text-anchor="middle">📋</text>
    <text x="52" y="28" font-family="system-ui,sans-serif" font-size="12" fill="#f1f5f9" font-weight="600">État Civil</text>
    <text x="52" y="40" font-family="system-ui,sans-serif" font-size="8" fill="#64748b">Démarches en ligne</text>
    <rect x="12" y="56" width="151" height="4" rx="2" fill="#1e293b"/>
    <rect x="12" y="56" width="120" height="4" rx="2" fill="#6366f1" opacity=".6"/>
    <rect x="12" y="66" width="151" height="4" rx="2" fill="#1e293b"/>
    <rect x="12" y="66" width="85" height="4" rx="2" fill="#6366f1" opacity=".4"/>
    <rect x="12" y="96" width="80" height="24" rx="8" fill="#6366f1" fill-opacity=".15"/>
    <text x="52" y="112" font-family="system-ui,sans-serif" font-size="9" fill="#6366f1" text-anchor="middle" font-weight="500">Formulaires →</text>
  </g>

  <!-- Component library preview -->
  <g transform="translate(30,330)">
    <text x="0" y="0" font-family="system-ui,sans-serif" font-size="10" fill="#94a3b8" font-weight="600" letter-spacing="2">COMPOSANTS ATOMIQUES</text>
  </g>
  <!-- Buttons -->
  <g transform="translate(30,348)">
    <rect width="90" height="30" rx="8" fill="#06b6d4"/>
    <text x="45" y="20" font-family="system-ui,sans-serif" font-size="10" fill="#0f172a" text-anchor="middle" font-weight="600">Primary</text>
    <rect x="100" width="90" height="30" rx="8" fill="none" stroke="#06b6d4" stroke-width="1.5"/>
    <text x="145" y="20" font-family="system-ui,sans-serif" font-size="10" fill="#06b6d4" text-anchor="middle" font-weight="500">Secondary</text>
    <rect x="200" width="90" height="30" rx="8" fill="#1e293b"/>
    <text x="245" y="20" font-family="system-ui,sans-serif" font-size="10" fill="#94a3b8" text-anchor="middle" font-weight="500">Tertiary</text>
    <rect x="300" width="30" height="30" rx="8" fill="#06b6d4" fill-opacity=".15"/>
    <text x="315" y="20" font-family="system-ui,sans-serif" font-size="14" fill="#06b6d4" text-anchor="middle">+</text>
  </g>
  <!-- Input -->
  <g transform="translate(380,348)">
    <rect width="200" height="30" rx="8" fill="#1e293b" stroke="#334155" stroke-width="1"/>
    <text x="12" y="20" font-family="system-ui,sans-serif" font-size="10" fill="#64748b">Rechercher un service...</text>
    <text x="180" y="20" font-family="system-ui,sans-serif" font-size="12" fill="#06b6d4">⌕</text>
  </g>
  <!-- Tags -->
  <g transform="translate(600,348)">
    <rect width="60" height="24" rx="12" fill="#06b6d4" fill-opacity=".1" y="3"/>
    <text x="30" y="20" font-family="system-ui,sans-serif" font-size="9" fill="#06b6d4" text-anchor="middle">Urgent</text>
    <rect x="68" width="60" height="24" rx="12" fill="#10b981" fill-opacity=".1" y="3"/>
    <text x="98" y="20" font-family="system-ui,sans-serif" font-size="9" fill="#10b981" text-anchor="middle">Actif</text>
    <rect x="136" width="60" height="24" rx="12" fill="#6366f1" fill-opacity=".1" y="3"/>
    <text x="166" y="20" font-family="system-ui,sans-serif" font-size="9" fill="#6366f1" text-anchor="middle">En cours</text>
  </g>
  <!-- Toggle -->
  <g transform="translate(820,348)">
    <rect width="44" height="24" rx="12" fill="#06b6d4" y="3"/>
    <circle cx="32" cy="15" r="9" fill="white"/>
    <text x="55" y="20" font-family="system-ui,sans-serif" font-size="9" fill="#94a3b8">Dark mode</text>
  </g>

  <!-- Navigation bar mockup -->
  <g transform="translate(30,405)">
    <text x="0" y="0" font-family="system-ui,sans-serif" font-size="10" fill="#94a3b8" font-weight="600" letter-spacing="2">NAVIGATION UNIFIÉE</text>
  </g>
  <g transform="translate(30,420)">
    <rect width="1140" height="44" rx="10" fill="#0f172a" stroke="#334155" stroke-width="1"/>
    <!-- Logo -->
    <circle cx="30" cy="22" r="12" fill="url(#accent)"/>
    <text x="30" y="26" font-family="system-ui,sans-serif" font-size="9" fill="white" text-anchor="middle" font-weight="700">UP</text>
    <text x="50" y="26" font-family="system-ui,sans-serif" font-size="12" fill="#f1f5f9" font-weight="600">Urban Pulse</text>
    <!-- Nav items -->
    <text x="200" y="26" font-family="system-ui,sans-serif" font-size="10" fill="#06b6d4" font-weight="500">Accueil</text>
    <text x="280" y="26" font-family="system-ui,sans-serif" font-size="10" fill="#94a3b8">Services</text>
    <text x="360" y="26" font-family="system-ui,sans-serif" font-size="10" fill="#94a3b8">Carte</text>
    <text x="420" y="26" font-family="system-ui,sans-serif" font-size="10" fill="#94a3b8">Alertes</text>
    <text x="490" y="26" font-family="system-ui,sans-serif" font-size="10" fill="#94a3b8">Contact</text>
    <!-- Search + avatar -->
    <rect x="920" y="10" width="140" height="24" rx="12" fill="#1e293b"/>
    <text x="935" y="26" font-family="system-ui,sans-serif" font-size="9" fill="#64748b">Rechercher...</text>
    <circle cx="1100" cy="22" r="14" fill="#06b6d4" fill-opacity=".2"/>
    <text x="1100" y="26" font-family="system-ui,sans-serif" font-size="10" fill="#06b6d4" text-anchor="middle">JD</text>
  </g>

  <!-- Bottom success bar -->
  <rect x="0" y="490" width="1200" height="110" fill="#0f172a"/>
  <rect x="0" y="490" width="1200" height="1" fill="#06b6d4" opacity=".3"/>
  <!-- Stats -->
  <g transform="translate(120,530)">
    <text x="0" y="0" font-family="system-ui,sans-serif" font-size="28" fill="#06b6d4" font-weight="700">15→1</text>
    <text x="0" y="20" font-family="system-ui,sans-serif" font-size="10" fill="#64748b">Identité unifiée</text>
  </g>
  <g transform="translate(330,530)">
    <text x="0" y="0" font-family="system-ui,sans-serif" font-size="28" fill="#10b981" font-weight="700">AAA</text>
    <text x="0" y="20" font-family="system-ui,sans-serif" font-size="10" fill="#64748b">WCAG Accessibilité</text>
  </g>
  <g transform="translate(530,530)">
    <text x="0" y="0" font-family="system-ui,sans-serif" font-size="28" fill="#6366f1" font-weight="700">120+</text>
    <text x="0" y="20" font-family="system-ui,sans-serif" font-size="10" fill="#64748b">Composants Figma</text>
  </g>
  <g transform="translate(730,530)">
    <text x="0" y="0" font-family="system-ui,sans-serif" font-size="28" fill="#f59e0b" font-weight="700">−87%</text>
    <text x="0" y="20" font-family="system-ui,sans-serif" font-size="10" fill="#64748b">Coûts de maintenance</text>
  </g>
  <g transform="translate(960,530)">
    <text x="0" y="0" font-family="system-ui,sans-serif" font-size="28" fill="#06b6d4" font-weight="700">12</text>
    <text x="0" y="20" font-family="system-ui,sans-serif" font-size="10" fill="#64748b">Équipes formées</text>
  </g>
</svg>
